<svg version="1.1" id="Layer_1" xmlns="http://www.w3.org/2000/svg" x="0" y="0" viewBox="0 0 1080 274" style="enable-background:new 0 0 1080 274" xml:space="preserve"><style>.st0{fill-rule:evenodd;clip-rule:evenodd;fill:#f16522}</style><path class="st0" d="m91.4 200.2-66.8.1v-1.8l49.2-2c9.3-.4 18.4-.8 27.2-3.8 18-6 32.3-18.3 36.5-33.4 4.5-16.3-5.9-32.1-25.5-33.4 16.6-4.9 30.7-15.4 34.5-28.9 4.9-17.6-4-26.5-18.9-29.7 24.9-.4 44.3 8 37.7 31.8-3.8 13.5-18.3 23.8-34.7 28.3 19.4 1.4 30 19.9 24.9 36-5.3 16.7-18.8 27.1-36.8 33.1-8.9 2.8-17.9 3.3-27.3 3.7zm-35-8.4c9.3-.4 18.4-.8 27.2-3.8 18-6 33.1-17.8 37.3-33 4.5-16.3-6.5-32-26.1-33.4l.1-.4c16.5-4.5 30.6-15 34.4-28.6 7-25.3-14.3-32.6-41.4-31l-57.2-.2L0 172h2.2L49.7 68.8l1.1.1-42.1 104c.4.1.9.3 1.3.4L86.7 67.4l1.3.4-73.6 107.4c.5.3.8.6 1.3.9l103.8-92.9.9 1.1-100.9 95.1c.6.7.5.7 1 1.4l86.8-44.4.5 1.3L23 184.9c.3.7.4.9.7 1.7l80.8-19.4v1.3l-79.7 23c.1.8.1 1 .1 1.8l31.5-1.5zM229 174.9h6.5c5.6 0 6.8 2.9 5.8 7.6-1.6 7.4-6.9 7.5-9.3 7.5h-6.2l3.2-15.1zm4.7-21.7h6.9c3.8 0 5.8 2.9 5 6.8-1.1 5.2-4.8 6.8-7.3 6.8h-7.4l2.8-13.6zm-1.1 45c4.7 0 16.6-.6 19.4-14.1 1.6-7.3.6-12.4-7.1-13.5v-.1c6.3-1.2 10.3-5.6 11.6-11.7 2.4-11.4-4.1-13.8-12.6-13.8h-19.8L213 198.2h19.6zm43.5-18c-.9 4.1-1.7 12.3-7.8 12.3-3.4 0-3.1-3.2-2.6-5.9 1.5-6.6 5.2-6.2 10.4-6.4zm11.8-7.5-4 18.6c-.5 2.3-.7 4.6-1 6.9h-9.7l.6-4.9h-.1c-3 3.8-6.4 5.7-10.9 5.7-7.2 0-8.7-5.4-7.4-11.9 2.6-12.3 12.2-12.8 21.9-12.7l.6-2.9c.7-3.2.7-5.5-3-5.5-3.6 0-4.5 2.7-5.1 5.7h-10.2c1-4.5 3-7.4 5.8-9.1 2.7-1.8 6.3-2.4 10.2-2.4 13.2 0 13.7 5.7 12.3 12.5zm18.4-11.7h-10.4l-7.9 37.2h10.4l5.5-25.7c.7-3.3 1.8-5.9 5.2-5.9 3.3 0 3.4 2.6 2.7 5.9l-5.5 25.7h10.4l6.3-29.9c1.1-5.2-2.6-8.1-7.6-8.1-3.9 0-7 1.2-9.7 4.5h-.1l.7-3.7zm25.6 37.2h-10.4l11.3-53.2h10.4l-6.7 31.7h.1l12.7-15.7h10.8L346 177.6l7.3 20.6h-11.7l-5.3-20.3h-.1l-4.3 20.3zm49.1-5.9c-3.8 0-4.3-2.4-1.9-13.8 1.6-7.7 2.8-11.6 7.3-11.6 4.4 0 4 3.9 2.3 11.6-2.3 11.4-3.8 13.8-7.7 13.8zm-1.4 6.6c13.4 0 16.9-8.2 19.4-19.8 2.2-10.2 2.5-18.9-11.2-18.9s-17 8.7-19.2 18.9c-2.4 11.7-2.4 19.8 11 19.8zm47-54.1-1.4 6.6c-4.1-.3-5.4 1.3-6.2 5.1l-1 4.5h4.9l-1.4 6.4h-4.9l-6.5 30.8h-10.4l6.5-30.8h-4.6l1.4-6.4h4.7c2.2-10.7 2.5-16.4 15.2-16.4 1.3 0 2.5.1 3.7.2zm20 30.1h6.5c5.6 0 6.8 2.9 5.8 7.6-1.6 7.4-6.9 7.5-9.3 7.5h-6.2l3.2-15.1zm4.6-21.7h6.9c3.8 0 5.8 2.9 5 6.8-1.1 5.2-4.8 6.8-7.3 6.8h-7.4l2.8-13.6zm-1 45c4.7 0 16.6-.6 19.4-14.1 1.6-7.3.6-12.4-7.1-13.5v-.1c6.3-1.2 10.3-5.6 11.6-11.7 2.4-11.4-4.1-13.8-12.6-13.8h-19.8l-11.3 53.2h19.8zm43.5-18c-.9 4.1-1.7 12.3-7.8 12.3-3.4 0-3.1-3.2-2.6-5.9 1.4-6.6 5.1-6.2 10.4-6.4zm11.7-7.5-3.9 18.6c-.5 2.3-.7 4.6-1 6.9h-9.7l.6-4.9h-.1c-3 3.8-6.4 5.7-10.9 5.7-7.2 0-8.7-5.4-7.4-11.9 2.6-12.3 12.2-12.8 21.9-12.7l.6-2.9c.7-3.2.7-5.5-3-5.5-3.6 0-4.5 2.7-5.1 5.7h-10.2c1-4.5 3-7.4 5.8-9.1 2.7-1.8 6.3-2.4 10.2-2.4 13.2 0 13.7 5.7 12.2 12.5zm8-11.7-7.9 37.2h10.4l4.3-20.3c.8-3.7 2.1-9 11.1-8.4l2-9.3c-4.2 0-8 1.3-10.8 5.5h-.1l1-4.8h-10v.1zm29.1 31.3c-3.8 0-4.3-2.4-1.9-13.8 1.6-7.7 2.8-11.6 7.3-11.6 4.4 0 4 3.9 2.3 11.6-2.4 11.4-3.9 13.8-7.7 13.8zm-1.4 6.6c-13.4 0-13.4-8.2-11-19.8 2.2-10.2 5.5-18.9 19.2-18.9s13.3 8.7 11.2 18.9c-2.5 11.7-6 19.8-19.4 19.8zm34.6-6.4c-3.8 0-3.6-3.9-1.6-13.3 1.6-7.4 2.6-12.6 7.1-12.6 4.3 0 3.1 5.2 1.5 12.6-1.9 9.4-3.4 13.3-7 13.3zm13.4 5.7 11.3-53.2H590l-4.2 19.5h-.1c-1.5-3.2-3.8-4.3-7.6-4.3-10.5 0-12.6 11.6-14.2 19.1-1.6 7.7-4.5 19.6 6.2 19.6 4 0 7.1-1.3 9.8-4.9h.1l-.9 4.1h10v.1zm27.2-18c-.9 4.1-1.7 12.3-7.8 12.3-3.4 0-3.1-3.2-2.6-5.9 1.5-6.6 5.2-6.2 10.4-6.4zm11.8-7.5-3.9 18.6c-.5 2.3-.7 4.6-1 6.9h-9.7l.6-4.9h-.1c-3 3.8-6.4 5.7-10.9 5.7-7.2 0-8.7-5.4-7.4-11.9 2.6-12.3 12.2-12.8 21.9-12.7l.6-2.9c.7-3.2.7-5.5-3-5.5-3.6 0-4.5 2.7-5.1 5.7h-10.2c1-4.5 3-7.4 5.8-9.1 2.7-1.8 6.3-2.4 10.2-2.4 13.1 0 13.6 5.7 12.2 12.5zM653 212.6c-2.7-6.7-4.2-12.6-4.6-17.5-.5-4.9.1-10.9 1.7-17.8 2.9-12.6 9.2-23.7 18.7-33.2h6.5c-3.9 4.7-7 10-9.4 15.9-2.4 5.9-4.4 12.4-6.1 19.7-1.6 6.8-2.4 12.4-2.4 17-.1 4.6.6 9.9 2.1 15.9H653zM746 165.5l1.6-6.7h4.1l2.6-11h10.1l-2.6 11h4.2l-1.6 6.7h-4.2l-5.6 23.9c-.1.5-.1 1.1 0 1.6.1.6.9.8 2.2.8.4 0 .9 0 1.5-.1l-1.7 7.2c-1.7.2-3.5.3-5.4.3-3 0-5.1-.5-6.4-1.6-1.3-1.1-1.6-2.9-1-5.5l6.2-26.6h-4zm4.1 33.1zM765 185.3h10.2c-.3.9-.6 1.7-.7 2.4-.8 3.2.3 4.8 3.1 4.8 2.9 0 4.6-1.2 5.2-3.5.3-1.4 0-2.5-.8-3.3-.8-.8-2-1.7-3.4-2.7l-4.8-3.7c-4.2-3.2-5.8-7.2-4.6-12.2 1.5-6.4 7.2-9.5 17-9.5 4.9 0 8.2 1.1 10.1 3.3 1.8 2.2 2.2 5.5 1.1 10h-10.1c.7-2.8.6-4.6 0-5.2-.7-.7-1.7-1-3.1-1-2.8 0-4.4 1.1-4.9 3.3-.2 1-.1 1.9.5 2.6.6.7 1.5 1.5 2.9 2.5l6.3 4.6c4 2.9 5.5 6.4 4.6 10.4-1.8 7.7-7.4 11.5-17 11.5-9.8 0-13.8-4.2-11.8-12.6-.2-.7 0-1.3.2-1.7zm21.3-30.9zm-10.1 44.2zM801.2 158.8h10.7l-2.5 30.7 12.5-30.7h8.4l-1.1 30.7h-.1l11.9-30.7h10.1l-18.5 39.8h-11l.7-23.1h.1l-10.1 23.1h-11.2zM878.1 198.6l9.2-39.2h10l-1 4.4c2.8-3.6 6.2-5.4 10.5-5.4 3 0 5.2.8 6.6 2.5 1.4 1.7 1.8 4.1 1 7.4l-7.1 30.3h-9.9l6.3-26.9c.5-2.3.6-3.9.2-4.9-.4-1-1.4-1.5-3-1.5-3.3 0-5.5 2.3-6.5 7l-6.1 26.3h-10.2zm25.9-43.5zm-11.3 43.5zM962.9 144.2c2.7 6.7 4.2 12.6 4.6 17.5.5 4.9-.1 10.9-1.7 17.8-2.9 12.6-9.2 23.7-18.7 33.2h-6.5c3.9-4.7 7-10 9.4-15.9 2.4-5.9 4.4-12.4 6.1-19.7 1.6-6.8 2.4-12.4 2.4-17 .1-4.6-.6-9.9-2.1-15.9h6.5zM994.9 145.6h10.9l-10.6 45.3h20.1l-1.8 7.8h-31l12.4-53.1zm6.4-4.5zm-3.3 57.5zm-8.1-54.2zm32.2 21.1 1.6-6.7h4.1l2.6-11h10.1l-2.6 11h4.2l-1.6 6.7h-4.2l-5.6 23.9c-.1.5-.1 1.1 0 1.6.1.6.9.8 2.2.8.4 0 .9 0 1.5-.1l-1.7 7.2c-1.7.2-3.5.3-5.4.3-3 0-5.1-.5-6.4-1.6-1.3-1.1-1.6-2.9-1-5.5l6.2-26.6h-4zm4 33.1zM1068.7 198.2 1080 145h-10.4l-4.2 19.5h-.1c-1.5-3.2-3.8-4.3-7.6-4.3-10.5 0-12.6 11.6-14.2 19.1-1.6 7.7-4.5 19.6 6.2 19.6 4 0 7.1-1.3 9.8-4.9h.1l-.9 4.1h10v.1zm-13.4-5.7c-3.8 0-3.6-3.9-1.6-13.3 1.6-7.4 2.6-12.6 7.1-12.6 4.3 0 3.1 5.2 1.5 12.6-2 9.4-3.5 13.3-7 13.3zM722.4 198.9c13.4 0 16.9-8.2 19.4-19.8 2.2-10.2 2.5-18.9-11.2-18.9s-17 8.7-19.2 18.9c-2.4 11.7-2.4 19.8 11 19.8zm1.4-6.6c-3.8 0-4.3-2.4-1.9-13.8 1.6-7.7 2.8-11.6 7.3-11.6 4.4 0 4 3.9 2.3 11.6-2.4 11.4-3.9 13.8-7.7 13.8zM878.9 172c1.4-6.8 1-12.5-12.2-12.5-4 0-7.5.7-10.2 2.4-2.8 1.7-4.8 4.6-5.8 9.1h10.2c.6-2.9 1.5-5.7 5.1-5.7 3.8 0 3.7 2.3 3 5.5l-.6 2.9c-9.6-.1-19.2.4-21.9 12.7-1.4 6.5.1 11.9 7.4 11.9 4.5 0 7.9-1.8 10.9-5.7h.1l-.6 4.9h9.7c.3-2.3.5-4.6 1-6.9l3.9-18.6zm-11.7 7.5c-.9 4.1-1.7 12.3-7.8 12.3-3.4 0-3.1-3.2-2.6-5.9 1.4-6.6 5.2-6.2 10.4-6.4zM686.7 198.2c4.7 0 16.6-.6 19.4-14.1 1.6-7.3.6-12.4-7.1-13.5v-.1c6.3-1.2 10.3-5.6 11.6-11.7 2.4-11.4-4.1-13.8-12.6-13.8h-19.8L667 198.2h19.7zm1-45h6.9c3.8 0 5.8 2.9 5 6.8-1.1 5.2-4.8 6.8-7.3 6.8h-7.4l2.8-13.6zm-4.6 21.7h6.5c5.6 0 6.8 2.9 5.8 7.6-1.6 7.4-6.9 7.5-9.3 7.5h-6.2l3.2-15.1zM948 172c1.4-6.8 1-12.5-12.2-12.5-4 0-7.5.7-10.2 2.4-2.8 1.7-4.8 4.6-5.8 9.1H930c.6-2.9 1.5-5.7 5.1-5.7 3.8 0 3.7 2.3 3 5.5l-.6 2.9c-9.6-.1-19.2.4-21.9 12.7-1.4 6.5.1 11.9 7.4 11.9 4.5 0 7.9-1.8 10.9-5.7h.1l-.6 4.9h9.7c.3-2.3.5-4.6 1-6.9L948 172zm-11.8 7.5c-.9 4.1-1.7 12.3-7.8 12.3-3.4 0-3.1-3.2-2.6-5.9 1.5-6.6 5.2-6.2 10.4-6.4z"/></svg>
